<svg clip-rule="evenodd" fill-rule="evenodd" stroke-linecap="round" stroke-linejoin="round" viewBox="0 0 200 200" xmlns="http://www.w3.org/2000/svg"><path d="m75.7794 137.77c2.1371 0 4.2454.24 6.3549.24"/><g fill="none" stroke-linecap="round" stroke-linejoin="round" stroke-width="1.98"><path d="m80.5933 75.5037c.7503.3752-1.5991.3586-2.3903.3586-1.8808 0-3.5966.104-5.378.3585-4.7577.6797-13.4772-1.8065-17.3292.1195" stroke="#000"/><path d="m54.7787 76.8184c0 6.3071.3585 12.6419.3585 19.0024 0 .6819.3476 5.8022 0 5.9752" stroke="#000"/><path d="m55.0177 102.035c-5.7617 0-11.4174.12-17.2097.12-2.8039 0-5.2281-.971-7.8878.358" stroke="#000"/><path d="m28.8446 102.752c.1675-.335.2391 2.557.2391 3.108 0 1.919.0078 3.826-.1196 5.736-.3445 5.168.5976 10.385.5976 15.537 0 .648-.7575 4.262-.3585 4.661.1463.146 6.2771-.551 6.9317-.478 7.1983.8 14.539-.239 21.7511-.239" stroke="#000"/><path d="m58.125 131.435c.1127-.281.144-1.051.3586-.836.1575.157 0 9.481 0 10.278 0 6.432.478 12.854.478 19.241" stroke="#000"/><path d="m82.2966 83.1794c5.5008 1.1001 8.6404-8.7262 8.0828-12.6294-.3302-2.3114-2.7829-5.105-5.0517-5.3886-.9764-.122-4.4014.6273-4.8834-.3368" stroke="#644efe"/><path d="m82.9702 62.1303c1.6685-.8342-3.4634 1.0573-4.0415 2.0208-1.0885 1.8142.8225 2.1599 1.5156 3.1994" stroke="#644efe"/><path d="m95.5996 62.4671c0-4.3687.466 4.9618-.1684 6.2305" stroke="#644efe"/><path d="m96.2732 60.9516c.4185-2.0926 3.2739-1.7619 3.5362.3368.5516 4.4155-6.04 2.4284.1684 6.5673" stroke="#644efe"/><path d="m53.5015 66.1718c.7892 0-2.912.0493-4.8834 2.0207-2.851 2.851-4.5466 7.0936-4.5466 11.1139" stroke="#644efe"/><path d="m47.1026 76.6121c-3.4517 6.9034-3.8637 3.555-5.8937-.5052" stroke="#644efe"/><path d="m35.8203 61.4568c.0696-.1393-.653 8.4299-1.0104 8.2512" stroke="#644efe"/><path d="m35.4835 62.6355c1.5644-2.0858 3.5493 1.1462 2.8627 2.8627-.3869.9671-5.2338.7301-2.3575 3.0311.6674.5339 1.0966 1.0966 1.6839 1.6839" stroke="#644efe"/><path d="m63.0999 95.8088c3.9201 5.8802-5.6864 14.5002-10.272 16.3342" stroke="#f0d84f"/><path d="m54.8486 107.765c1.1611-1.935-3.8616 4.232-3.1994 5.557.3764.752 3.8879.842 4.715.842" stroke="#f0d84f"/><path d="m67.8148 104.734c-.7337 2.935-1.9897 5.678-2.8626 8.588-.0823.274-.4066.683-.1684.842.308.205 5.3108-.229 5.7253-.506.3264-.217.3368-2.004.3368-2.357" stroke="#f0d84f"/><path d="m31.2737 95.3036c-6.9623 1.3925-10.3914 5.6494-11.7875 12.6294" stroke="#644efe"/><path d="m22.8541 106.249c-1.0436 1.044-2.0942 2.055-3.0311 3.2-2.2647 2.768-1.9225-2.835-2.5259-4.042" stroke="#644efe"/><path d="m16.4552 87.0524c-.8735 3.0571-1.6183 6.1219-2.1891 9.2616-.1754.9645-.2352 3.739-.6736 2.8627" stroke="#644efe"/><path d="m15.6132 89.7467c.8151-2.4453 2.9382.2032 2.5259 1.8523-.5276 2.1103-4.8778 2.3399-1.3471 4.5466.7691.4807 1.5466.9417 2.3575 1.3471" stroke="#644efe"/><path d="m19.9914 129.319c.2812-.844-.1684 2.158-.1684 3.031 0 2.076.822 4.568 2.5259 5.894 1.6662 1.296 4.9689 2.701 7.0725 2.862.2906.023 3.5264 0 2.6943 0" stroke="#644efe"/><path d="m33.4628 140.096c-.6636-.498-1.317-.907-2.0207-1.347-4.2789-2.674 3.8002 1.083 2.1891 2.694-.7113.711-2.0581 1.048-2.8627 1.852" stroke="#644efe"/><path d="m17.1287 142.285c0 3.197-1.3471 6.522-1.3471 9.767" stroke="#644efe"/><path d="m16.792 142.622c1.6412-.657 3.7215.841 3.5362 2.694-.2974 2.974-2.7691.786-3.7046 2.189-.5444.817 5.2341 4.561 5.8937 5.22" stroke="#644efe"/><path d="m57.5429 123.93c4.8849 0 13.6187 6.441 10.7771 12.125" stroke="#f0d84f"/><path d="m71.5195 133.192c.7462-.373-.4036 1.48-.5052 1.852-.2807 1.03-.6599 2.465-1.8523 2.863-1.3569.452-2.3949-2.432-2.8627-3.368" stroke="#f0d84f"/><path d="m79.0971 124.267c1.2865-1.93-1.0879 7.837-.8419 8.083.5116.512 5.7478.819 6.0621.505.535-.535.5444-3.704-.1684-3.704" stroke="#f0d84f"/></g></svg>